<svg width="143" height="139" viewBox="0 0 143 139" fill="none" xmlns="http://www.w3.org/2000/svg">
<rect width="143" height="139" fill="white"/>
<path d="M12.8551 101V79.1818H16.9602V82.6477H17.1875C17.5852 81.4735 18.286 80.5502 19.2898 79.8778C20.303 79.196 21.4489 78.8551 22.7273 78.8551C22.9924 78.8551 23.3049 78.8646 23.6648 78.8835C24.0341 78.9025 24.3229 78.9261 24.5312 78.9545V83.017C24.3608 82.9697 24.0578 82.9176 23.6222 82.8608C23.1866 82.7945 22.7509 82.7614 22.3153 82.7614C21.3116 82.7614 20.4167 82.9744 19.6307 83.4006C18.8542 83.8172 18.2386 84.3996 17.7841 85.1477C17.3295 85.8864 17.1023 86.7292 17.1023 87.6761V101H12.8551ZM34.8288 101.44C32.6792 101.44 30.8279 100.981 29.2749 100.062C27.7313 99.1345 26.5381 97.8324 25.6953 96.1562C24.862 94.4706 24.4453 92.4962 24.4453 90.233C24.4453 87.9981 24.862 86.0284 25.6953 84.3239C26.5381 82.6193 27.7124 81.2888 29.218 80.3324C30.7332 79.3759 32.504 78.8977 34.5305 78.8977C35.7616 78.8977 36.9548 79.1013 38.1101 79.5085C39.2654 79.9157 40.3023 80.5549 41.2209 81.4261C42.1394 82.2973 42.8639 83.429 43.3942 84.821C43.9245 86.2036 44.1896 87.8845 44.1896 89.8636V91.3693H26.8459V88.1875H40.0277C40.0277 87.0701 39.8004 86.0805 39.3459 85.2188C38.8913 84.3475 38.2521 83.661 37.4283 83.1591C36.6139 82.6572 35.6574 82.4062 34.5589 82.4062C33.3658 82.4062 32.3241 82.6998 31.4339 83.2869C30.5533 83.8646 29.8714 84.6222 29.3885 85.5597C28.915 86.4877 28.6783 87.4962 28.6783 88.5852V91.071C28.6783 92.5294 28.9339 93.7699 29.4453 94.7926C29.9661 95.8153 30.6906 96.5966 31.6186 97.1364C32.5466 97.6667 33.6309 97.9318 34.8714 97.9318C35.6764 97.9318 36.4103 97.8182 37.0732 97.5909C37.736 97.3542 38.3089 97.0038 38.7919 96.5398C39.2749 96.0758 39.6442 95.5028 39.8999 94.821L43.9197 95.5455C43.5978 96.7292 43.0201 97.7661 42.1868 98.6562C41.3629 99.5369 40.326 100.223 39.076 100.716C37.8355 101.199 36.4197 101.44 34.8288 101.44ZM12.8551 126V104.182H16.9318V107.733H17.2017C17.6563 106.53 18.3996 105.593 19.4318 104.92C20.464 104.239 21.6998 103.898 23.1392 103.898C24.5975 103.898 25.8191 104.239 26.804 104.92C27.7983 105.602 28.5322 106.54 29.0057 107.733H29.233C29.7538 106.568 30.5824 105.64 31.7188 104.949C32.8551 104.248 34.2093 103.898 35.7812 103.898C37.7604 103.898 39.375 104.518 40.625 105.759C41.8845 106.999 42.5142 108.869 42.5142 111.369V126H38.267V111.767C38.267 110.29 37.8646 109.22 37.0597 108.557C36.2547 107.894 35.2936 107.562 34.1761 107.562C32.7936 107.562 31.7188 107.989 30.9517 108.841C30.1847 109.684 29.8011 110.768 29.8011 112.094V126H25.5682V111.497C25.5682 110.313 25.1989 109.362 24.4602 108.642C23.7216 107.922 22.7604 107.562 21.5767 107.562C20.7718 107.562 20.0284 107.776 19.3466 108.202C18.6742 108.618 18.1297 109.201 17.7131 109.949C17.3059 110.697 17.1023 111.563 17.1023 112.548V126H12.8551ZM46.2067 126V104.182H50.4538V126H46.2067ZM48.3516 100.815C47.6129 100.815 46.9785 100.569 46.4482 100.077C45.9273 99.5748 45.6669 98.9782 45.6669 98.2869C45.6669 97.5862 45.9273 96.9896 46.4482 96.4972C46.9785 95.9953 47.6129 95.7443 48.3516 95.7443C49.0902 95.7443 49.7199 95.9953 50.2408 96.4972C50.7711 96.9896 51.0362 97.5862 51.0362 98.2869C51.0362 98.9782 50.7711 99.5748 50.2408 100.077C49.7199 100.569 49.0902 100.815 48.3516 100.815ZM58.4148 113.045V126H54.1676V104.182H58.2443V107.733H58.5142C59.0161 106.578 59.8021 105.65 60.8722 104.949C61.9517 104.248 63.3106 103.898 64.9489 103.898C66.4356 103.898 67.7377 104.21 68.8551 104.835C69.9725 105.451 70.839 106.369 71.4545 107.591C72.0701 108.812 72.3778 110.323 72.3778 112.122V126H68.1307V112.634C68.1307 111.052 67.7188 109.816 66.8949 108.926C66.071 108.027 64.9394 107.577 63.5 107.577C62.5152 107.577 61.6392 107.79 60.8722 108.216C60.1146 108.642 59.5133 109.267 59.0682 110.091C58.6326 110.905 58.4148 111.89 58.4148 113.045ZM76.0739 126V104.182H80.321V126H76.0739ZM78.2188 100.815C77.4801 100.815 76.8456 100.569 76.3153 100.077C75.7945 99.5748 75.5341 98.9782 75.5341 98.2869C75.5341 97.5862 75.7945 96.9896 76.3153 96.4972C76.8456 95.9953 77.4801 95.7443 78.2188 95.7443C78.9574 95.7443 79.5871 95.9953 80.108 96.4972C80.6383 96.9896 80.9034 97.5862 80.9034 98.2869C80.9034 98.9782 80.6383 99.5748 80.108 100.077C79.5871 100.569 78.9574 100.815 78.2188 100.815Z" fill="#244111"/>
</svg>
