<svg width="34" height="34" viewBox="0 0 34 34" fill="none" xmlns="http://www.w3.org/2000/svg">
<g clip-path="url(#clip0_154_28)">
<path fill-rule="evenodd" clip-rule="evenodd" d="M16.9997 2.83331C24.8239 2.83331 31.1663 9.17573 31.1663 17C31.1663 23.0916 27.3215 28.2851 21.9268 30.2855C21.8356 30.3356 21.7392 30.3755 21.6393 30.4045L21.5047 30.4356C20.0525 30.9215 18.531 31.1684 16.9997 31.1666C9.17542 31.1666 2.83301 24.8242 2.83301 17C2.83301 9.17573 9.17542 2.83331 16.9997 2.83331ZM21.1222 6.44015L20.8728 7.68823C20.7121 8.49151 20.3227 9.23122 19.7514 9.81834C19.1801 10.4055 18.4513 10.815 17.6528 10.9976L17.0847 11.1279C16.7323 11.2082 16.424 11.4202 16.2228 11.7204C16.0216 12.0207 15.9427 12.3864 16.0023 12.7429L16.2503 14.2276C16.3292 14.7035 16.2854 15.1916 16.1229 15.6458C15.9604 16.1 15.6847 16.5052 15.3218 16.8231C14.9588 17.1409 14.5208 17.3607 14.0491 17.4619C13.5774 17.563 13.0877 17.542 12.6264 17.4009L10.7989 16.8427C9.92846 16.5766 9.16641 16.0381 8.62498 15.3064C8.08354 14.5747 7.79133 13.6885 7.79134 12.7783V10.3912C6.44998 12.2587 5.70838 14.4901 5.665 16.789C5.62163 19.0879 6.27854 21.3457 7.54851 23.2624C8.81847 25.1792 10.6414 26.6644 12.7753 27.5208C14.9092 28.3771 17.2531 28.5642 19.4958 28.0571L18.6728 25.1784C18.6063 24.947 18.482 24.7364 18.3115 24.5664L16.5577 22.8111C16.3463 22.5999 16.1818 22.3464 16.0751 22.0673C15.9683 21.7881 15.9216 21.4896 15.9381 21.1912C15.9545 20.8928 16.0337 20.6012 16.1705 20.3355C16.3073 20.0698 16.4986 19.8359 16.7319 19.6491L18.949 17.8769C19.3717 17.5388 19.8824 17.3288 20.4206 17.2718C20.9589 17.2148 21.5022 17.3132 21.9863 17.5553L24.0688 18.5966C24.6946 18.9095 25.2334 19.372 25.6374 19.9431C26.0415 20.5143 26.2983 21.1763 26.3851 21.8705L26.5409 23.1186C27.4462 21.7063 28.0268 20.1107 28.2409 18.4468C28.4549 16.783 28.2971 15.0924 27.7787 13.4969C27.2603 11.9015 26.3944 10.4409 25.2433 9.22064C24.0922 8.00034 22.6847 7.05068 21.1222 6.44015ZM20.7184 20.0897L19.1204 21.3676L20.3161 22.5618C20.7526 22.9989 21.0886 23.5258 21.3007 24.106L21.397 24.4006L22.1663 27.0895C22.6621 26.8345 23.1381 26.5441 23.5886 26.2225L24.032 25.8881L23.5744 22.2218C23.5491 22.0199 23.4806 21.8258 23.3735 21.6527C23.2664 21.4796 23.1233 21.3316 22.9539 21.2188L22.8009 21.131L20.7184 20.0897ZM16.9997 5.66665C14.722 5.66309 12.4966 6.34908 10.6162 7.6344C10.6218 7.6854 10.6247 7.73781 10.6247 7.79165V12.7783C10.6244 13.0818 10.7216 13.3773 10.9019 13.6214C11.0822 13.8654 11.3361 14.0452 11.6263 14.1341L13.4552 14.6922L13.2073 13.2076C13.0291 12.1388 13.2658 11.0424 13.8691 10.1424C14.4723 9.24234 15.3966 8.60671 16.4528 8.3654L17.0209 8.23648C17.2875 8.17556 17.5307 8.03881 17.7212 7.84274C17.9117 7.64666 18.0415 7.39964 18.0948 7.13148L18.3724 5.74881C17.9169 5.69394 17.4585 5.66651 16.9997 5.66665Z" fill="black"/>
</g>
<defs>
<clipPath id="clip0_154_28">
<rect width="34" height="34" fill="white"/>
</clipPath>
</defs>
</svg>
