<svg width="60" height="68" viewBox="0 0 60 68" fill="none" xmlns="http://www.w3.org/2000/svg">
<rect width="60" height="68" fill="#244111"/>
<path d="M4.32813 48V36H7.55469V38.0937H7.67969C7.89844 37.349 8.26563 36.7865 8.78125 36.4063C9.29688 36.0208 9.89063 35.8281 10.5625 35.8281C10.7292 35.8281 10.9089 35.8385 11.1016 35.8594C11.2943 35.8802 11.4635 35.9089 11.6094 35.9453V38.8984C11.4531 38.8516 11.237 38.8099 10.9609 38.7734C10.6849 38.737 10.4323 38.7188 10.2031 38.7188C9.71354 38.7188 9.27604 38.8255 8.89063 39.0391C8.51042 39.2474 8.20833 39.5391 7.98438 39.9141C7.76563 40.2891 7.65625 40.7214 7.65625 41.2109V48H4.32813ZM17.1402 48.2344C15.9059 48.2344 14.8434 47.9844 13.9527 47.4844C13.0673 46.9792 12.385 46.2656 11.9059 45.3437C11.4267 44.4167 11.1871 43.3203 11.1871 42.0547C11.1871 40.8203 11.4267 39.737 11.9059 38.8047C12.385 37.8724 13.0595 37.1458 13.9293 36.625C14.8043 36.1042 15.8303 35.8438 17.0074 35.8438C17.7991 35.8438 18.5361 35.9714 19.2184 36.2266C19.9059 36.4766 20.5048 36.8542 21.0152 37.3594C21.5309 37.8646 21.9319 38.5 22.2184 39.2656C22.5048 40.026 22.648 40.9167 22.648 41.9375V42.8516H12.5152V40.7891H19.5152C19.5152 40.3099 19.4111 39.8854 19.2027 39.5156C18.9944 39.1458 18.7053 38.8568 18.3355 38.6484C17.971 38.4349 17.5465 38.3281 17.0621 38.3281C16.5569 38.3281 16.109 38.4453 15.7184 38.6797C15.3329 38.9089 15.0309 39.2187 14.8121 39.6094C14.5934 39.9948 14.4814 40.4245 14.4762 40.8984V42.8594C14.4762 43.4531 14.5855 43.9661 14.8043 44.3984C15.0283 44.8307 15.3434 45.1641 15.7496 45.3984C16.1559 45.6328 16.6376 45.75 17.1949 45.75C17.5647 45.75 17.9033 45.6979 18.2105 45.5938C18.5178 45.4896 18.7809 45.3333 18.9996 45.125C19.2184 44.9167 19.385 44.6615 19.4996 44.3594L22.5777 44.5625C22.4215 45.3021 22.1012 45.9479 21.6168 46.5C21.1376 47.0469 20.5178 47.474 19.7574 47.7813C19.0022 48.0833 18.1298 48.2344 17.1402 48.2344ZM4.32813 62V50H7.5V52.1172H7.64062C7.89063 51.4141 8.30729 50.8594 8.89063 50.4531C9.47396 50.0469 10.1719 49.8438 10.9844 49.8438C11.8073 49.8438 12.5078 50.0495 13.0859 50.4609C13.6641 50.8672 14.0495 51.4193 14.2422 52.1172H14.3672C14.612 51.4297 15.0547 50.8802 15.6953 50.4687C16.3411 50.0521 17.1042 49.8438 17.9844 49.8438C19.1042 49.8438 20.013 50.2005 20.7109 50.9141C21.4141 51.6224 21.7656 52.6276 21.7656 53.9297V62H18.4453V54.5859C18.4453 53.9193 18.2682 53.4193 17.9141 53.0859C17.5599 52.7526 17.1172 52.5859 16.5859 52.5859C15.9818 52.5859 15.5104 52.7786 15.1719 53.1641C14.8333 53.5443 14.6641 54.0469 14.6641 54.6719V62H11.4375V54.5156C11.4375 53.9271 11.2682 53.4583 10.9297 53.1094C10.5964 52.7604 10.1563 52.5859 9.60938 52.5859C9.23958 52.5859 8.90625 52.6797 8.60938 52.8672C8.31771 53.0495 8.08594 53.3073 7.91406 53.6406C7.74219 53.9687 7.65625 54.3542 7.65625 54.7969V62H4.32813ZM23.2945 62V50H26.6227V62H23.2945ZM24.9664 48.4531C24.4716 48.4531 24.0471 48.2891 23.693 47.9609C23.344 47.6276 23.1695 47.2292 23.1695 46.7656C23.1695 46.3073 23.344 45.9141 23.693 45.5859C24.0471 45.2526 24.4716 45.0859 24.9664 45.0859C25.4612 45.0859 25.8831 45.2526 26.232 45.5859C26.5862 45.9141 26.7633 46.3073 26.7633 46.7656C26.7633 47.2292 26.5862 47.6276 26.232 47.9609C25.8831 48.2891 25.4612 48.4531 24.9664 48.4531ZM31.5168 55.0625V62H28.1887V50H31.3605V52.1172H31.5012C31.7668 51.4193 32.2121 50.8672 32.8371 50.4609C33.4621 50.0495 34.2199 49.8438 35.1105 49.8438C35.9439 49.8438 36.6704 50.026 37.2902 50.3906C37.91 50.7552 38.3918 51.276 38.7355 51.9531C39.0793 52.625 39.2512 53.4271 39.2512 54.3594V62H35.923V54.9531C35.9283 54.2187 35.7408 53.6458 35.3605 53.2344C34.9803 52.8177 34.4569 52.6094 33.7902 52.6094C33.3423 52.6094 32.9465 52.7057 32.6027 52.8984C32.2642 53.0911 31.9986 53.3724 31.8059 53.7422C31.6184 54.1068 31.522 54.5469 31.5168 55.0625ZM40.7742 62V50H44.1023V62H40.7742ZM42.4461 48.4531C41.9513 48.4531 41.5268 48.2891 41.1727 47.9609C40.8237 47.6276 40.6492 47.2292 40.6492 46.7656C40.6492 46.3073 40.8237 45.9141 41.1727 45.5859C41.5268 45.2526 41.9513 45.0859 42.4461 45.0859C42.9409 45.0859 43.3628 45.2526 43.7117 45.5859C44.0659 45.9141 44.243 46.3073 44.243 46.7656C44.243 47.2292 44.0659 47.6276 43.7117 47.9609C43.3628 48.2891 42.9409 48.4531 42.4461 48.4531Z" fill="white"/>
</svg>
